<svg width="36" height="36" viewBox="0 0 36 36" fill="none" xmlns="http://www.w3.org/2000/svg">
<rect x="0.5" y="0.5" width="35" height="35" rx="9.5" stroke="#0C0C0C" stroke-opacity="0.1"/>
<g opacity="0.8">
<path d="M25.9485 14.7225C25.9387 14.051 25.8143 13.3849 25.5762 12.7568C25.1595 11.6844 24.311 10.8365 23.2368 10.4213C22.6157 10.188 21.9591 10.063 21.2945 10.0488C20.4398 10.0106 20.1688 10 17.9991 10C15.8294 10 15.5513 10 14.7028 10.0488C14.0391 10.063 13.3825 10.188 12.7614 10.4213C11.6873 10.8365 10.8378 11.6844 10.422 12.7568C10.1884 13.3769 10.0622 14.0324 10.0498 14.695C10.0116 15.5492 10 15.8197 10 17.9858C10 20.1519 10 20.4287 10.0498 21.2766C10.0631 21.9401 10.1884 22.5947 10.422 23.2165C10.8387 24.2881 11.6873 25.136 12.7623 25.5512C13.3807 25.7924 14.0373 25.929 14.7037 25.9503C15.5593 25.9885 15.8303 26 18 26C20.1697 26 20.4478 26 21.2963 25.9503C21.96 25.937 22.6166 25.812 23.2386 25.5787C24.3127 25.1627 25.1613 24.3147 25.578 23.2432C25.8116 22.6222 25.9369 21.9676 25.9502 21.3033C25.9884 20.4499 26 20.1794 26 18.0124C25.9982 15.8463 25.9982 15.5714 25.9485 14.7225ZM17.9938 22.0821C15.7246 22.0821 13.8863 20.2468 13.8863 17.9814C13.8863 15.7159 15.7246 13.8807 17.9938 13.8807C20.2612 13.8807 22.1013 15.7159 22.1013 17.9814C22.1013 20.2468 20.2612 22.0821 17.9938 22.0821ZM22.2648 14.6852C21.7343 14.6852 21.307 14.2577 21.307 13.729C21.307 13.2004 21.7343 12.7728 22.2648 12.7728C22.7934 12.7728 23.2217 13.2004 23.2217 13.729C23.2217 14.2577 22.7934 14.6852 22.2648 14.6852Z" fill="#0C0C0C"/>
<path d="M17.9952 20.485C19.3773 20.485 20.4977 19.3646 20.4977 17.9825C20.4977 16.6004 19.3773 15.48 17.9952 15.48C16.6131 15.48 15.4927 16.6004 15.4927 17.9825C15.4927 19.3646 16.6131 20.485 17.9952 20.485Z" fill="#0C0C0C"/>
</g>
</svg>
