<svg width="36" height="36" viewBox="0 0 36 36" fill="none" xmlns="http://www.w3.org/2000/svg">
<rect x="0.5" y="0.5" width="35" height="35" rx="9.5" stroke="#0C0C0C" stroke-opacity="0.1"/>
<g opacity="0.8">
<path fill-rule="evenodd" clip-rule="evenodd" d="M23.1499 11.7499C22.2999 11.6999 20.5499 11.6499 17.8999 11.6499H17.5499C14.9999 11.6499 13.2999 11.6999 12.4499 11.7999C11.2999 11.8999 10.4999 12.1999 10.0499 12.5999C9.6499 12.9499 9.34991 13.5999 9.24991 14.4499C9.19991 14.9999 9.1499 16.1499 9.1499 17.8999V18.1499C9.1499 19.7999 9.1999 20.9499 9.2999 21.4999C9.4499 22.2999 9.69992 22.8999 10.1999 23.2499C10.6999 23.6499 11.5499 23.8999 12.7499 23.9999C13.5999 24.0499 15.3499 24.0999 17.9999 24.0999H18.3499C20.8999 24.0999 22.5999 24.0499 23.4499 23.9499C24.5999 23.8499 25.3999 23.5499 25.8499 23.1499C26.2499 22.7999 26.5499 22.1499 26.6499 21.2999C26.6999 20.7499 26.7499 19.5999 26.7499 17.8499V17.5999C26.7499 15.9499 26.6999 14.7999 26.5999 14.2499C26.4499 13.4499 26.1999 12.8499 25.6999 12.4999C25.1999 12.0999 24.3499 11.8499 23.1499 11.7499ZM21.1999 17.8999L15.6999 21.1999V14.5999L21.1999 17.8999Z" fill="#0C0C0C"/>
</g>
</svg>
