<svg width="36" height="36" viewBox="0 0 36 36" fill="none" xmlns="http://www.w3.org/2000/svg">
<rect x="0.5" y="0.5" width="35" height="35" rx="9.5" stroke="#0C0C0C" stroke-opacity="0.1"/>
<g opacity="0.8">
<path d="M20.2 10.9001C20.35 10.9001 20.5 10.9001 20.8 10.9001V13.1501C20.65 13.1501 20.35 13.1501 20.05 13.1501C19.75 13.1501 19.45 13.1501 19.3 13.3001C19.15 13.4501 19.15 13.6001 19.15 13.9501C19.15 14.2501 19.15 14.4501 19.15 14.7501H20.8V16.6501H19.15V24.9001H16.6V16.6001H15.25V14.7001H16.6V14.0501C16.6 12.9501 16.75 12.1501 17.05 11.8001C17.5 11.1501 18.4 10.8501 19.75 10.8501C19.9 10.9001 20.05 10.9001 20.2 10.9001Z" fill="#0C0C0C"/>
</g>
</svg>
